<?xml version="1.0" encoding="UTF-8" standalone="no"?>
<!DOCTYPE svg PUBLIC "-//W3C//DTD SVG 1.1//EN"
 "http://www.w3.org/Graphics/SVG/1.1/DTD/svg11.dtd">
<!-- Generated by graphviz version 14.0.4 (20251115.1723)
 -->
<!-- Title: GamELY &#45; LLM Evaluation Framework Architecture Pages: 1 -->
<svg width="1600pt" height="2995pt"
 viewBox="0.00 0.00 1600.00 2995.00" xmlns="http://www.w3.org/2000/svg" xmlns:xlink="http://www.w3.org/1999/xlink">
<g id="graph0" class="graph" transform="scale(1 1) rotate(0) translate(36 2959.25)">
<title>GamELY &#45; LLM Evaluation Framework Architecture</title>
<polygon fill="white" stroke="none" points="-36,36 -36,-2959.25 1564,-2959.25 1564,36 -36,36"/>
<text xml:space="preserve" text-anchor="middle" x="764" y="-5.7" font-family="Sans-Serif" font-size="14.00" fill="#2d3436">GamELY &#45; LLM Evaluation Framework Architecture</text>
<g id="clust1" class="cluster">
<title>cluster_Input Data</title>
<path fill="#e3f2fd" stroke="#aeb6be" d="M800,-1786.15C800,-1786.15 1383,-1786.15 1383,-1786.15 1389,-1786.15 1395,-1792.15 1395,-1798.15 1395,-1798.15 1395,-1991.25 1395,-1991.25 1395,-1997.25 1389,-2003.25 1383,-2003.25 1383,-2003.25 800,-2003.25 800,-2003.25 794,-2003.25 788,-1997.25 788,-1991.25 788,-1991.25 788,-1798.15 788,-1798.15 788,-1792.15 794,-1786.15 800,-1786.15"/>
<text xml:space="preserve" text-anchor="middle" x="827.12" y="-1986.9" font-family="Sans-Serif" font-size="13.00" fill="#2d3436">Input Data</text>
</g>
<g id="clust2" class="cluster">
<title>cluster_GamELY Core</title>
<path fill="#f3e5f5" stroke="#aeb6be" d="M766,-277.6C766,-277.6 1154,-277.6 1154,-277.6 1160,-277.6 1166,-283.6 1166,-289.6 1166,-289.6 1166,-1724.65 1166,-1724.65 1166,-1730.65 1160,-1736.65 1154,-1736.65 1154,-1736.65 766,-1736.65 766,-1736.65 760,-1736.65 754,-1730.65 754,-1724.65 754,-1724.65 754,-289.6 754,-289.6 754,-283.6 760,-277.6 766,-277.6"/>
<text xml:space="preserve" text-anchor="middle" x="804.38" y="-1720.3" font-family="Sans-Serif" font-size="13.00" fill="#2d3436">GamELY Core</text>
</g>
<g id="clust3" class="cluster">
<title>cluster_GamELY Class</title>
<path fill="#ebf3e7" stroke="#aeb6be" d="M946,-297.6C946,-297.6 1073,-297.6 1073,-297.6 1079,-297.6 1085,-303.6 1085,-309.6 1085,-309.6 1085,-1229.35 1085,-1229.35 1085,-1235.35 1079,-1241.35 1073,-1241.35 1073,-1241.35 946,-1241.35 946,-1241.35 940,-1241.35 934,-1235.35 934,-1229.35 934,-1229.35 934,-309.6 934,-309.6 934,-303.6 940,-297.6 946,-297.6"/>
<text xml:space="preserve" text-anchor="middle" x="982.5" y="-1225.95" font-family="Sans-Serif" font-size="12.00" fill="#2d3436">GamELY Class</text>
</g>
<g id="clust4" class="cluster">
<title>cluster_Provider Mapping</title>
<path fill="#ebf3e7" stroke="#aeb6be" d="M786,-1015C786,-1015 902,-1015 902,-1015 908,-1015 914,-1021 914,-1027 914,-1027 914,-1683.15 914,-1683.15 914,-1689.15 908,-1695.15 902,-1695.15 902,-1695.15 786,-1695.15 786,-1695.15 780,-1695.15 774,-1689.15 774,-1683.15 774,-1683.15 774,-1027 774,-1027 774,-1021 780,-1015 786,-1015"/>
<text xml:space="preserve" text-anchor="middle" x="829.25" y="-1679.75" font-family="Sans-Serif" font-size="12.00" fill="#2d3436">Provider Mapping</text>
</g>
<g id="clust5" class="cluster">
<title>cluster_LLM Provider APIs</title>
<path fill="#fff3e0" stroke="#aeb6be" d="M473,-31C473,-31 897,-31 897,-31 903,-31 909,-37 909,-43 909,-43 909,-236.1 909,-236.1 909,-242.1 903,-248.1 897,-248.1 897,-248.1 473,-248.1 473,-248.1 467,-248.1 461,-242.1 461,-236.1 461,-236.1 461,-43 461,-43 461,-37 467,-31 473,-31"/>
<text xml:space="preserve" text-anchor="middle" x="524.12" y="-231.75" font-family="Sans-Serif" font-size="13.00" fill="#2d3436">LLM Provider APIs</text>
</g>
<g id="clust6" class="cluster">
<title>cluster_Evaluation Pipeline</title>
<path fill="#e8f5e9" stroke="#aeb6be" d="M149,-287.6C149,-287.6 672,-287.6 672,-287.6 678,-287.6 684,-293.6 684,-299.6 684,-299.6 684,-1412.3 684,-1412.3 684,-1418.3 678,-1424.3 672,-1424.3 672,-1424.3 149,-1424.3 149,-1424.3 143,-1424.3 137,-1418.3 137,-1412.3 137,-1412.3 137,-299.6 137,-299.6 137,-293.6 143,-287.6 149,-287.6"/>
<text xml:space="preserve" text-anchor="middle" x="202.38" y="-1407.95" font-family="Sans-Serif" font-size="13.00" fill="#2d3436">Evaluation Pipeline</text>
</g>
<g id="clust7" class="cluster">
<title>cluster_Per&#45;Response Evaluation</title>
<path fill="#ebf3e7" stroke="#aeb6be" d="M164,-302.6C164,-302.6 429,-302.6 429,-302.6 435,-302.6 441,-308.6 441,-314.6 441,-314.6 441,-1224.35 441,-1224.35 441,-1230.35 435,-1236.35 429,-1236.35 429,-1236.35 164,-1236.35 164,-1236.35 158,-1236.35 152,-1230.35 152,-1224.35 152,-1224.35 152,-314.6 152,-314.6 152,-308.6 158,-302.6 164,-302.6"/>
<text xml:space="preserve" text-anchor="middle" x="228.62" y="-1220.95" font-family="Sans-Serif" font-size="12.00" fill="#2d3436">Per&#45;Response Evaluation</text>
</g>
<g id="clust8" class="cluster">
<title>cluster_Output Results</title>
<path fill="#e8f4f8" stroke="#aeb6be" d="M743,-2289.05C743,-2289.05 863,-2289.05 863,-2289.05 869,-2289.05 875,-2295.05 875,-2301.05 875,-2301.05 875,-2903.25 875,-2903.25 875,-2909.25 869,-2915.25 863,-2915.25 863,-2915.25 743,-2915.25 743,-2915.25 737,-2915.25 731,-2909.25 731,-2903.25 731,-2903.25 731,-2301.05 731,-2301.05 731,-2295.05 737,-2289.05 743,-2289.05"/>
<text xml:space="preserve" text-anchor="middle" x="783.25" y="-2898.9" font-family="Sans-Serif" font-size="13.00" fill="#2d3436">Output Results</text>
</g>
<!-- 636fed0a8b124343857a771c812905c1 -->
<g id="node1" class="node">
<title>636fed0a8b124343857a771c812905c1</title>
<image xlink:href="/Users/alexwork/Documents/Github/Architecture_Diagrams_Python_AI/venv/lib/python3.9/site-packages/resources/generic/storage/storage.png" width="100.8px" height="100.8px" preserveAspectRatio="xMinYMin meet" x="1279.6" y="-1934.35"/>
<text xml:space="preserve" text-anchor="middle" x="1330" y="-1815.8" font-family="Sans-Serif" font-size="13.00" fill="#2d3436">pandas DataFrame</text>
<text xml:space="preserve" text-anchor="middle" x="1330" y="-1802.3" font-family="Sans-Serif" font-size="13.00" fill="#2d3436">(reference + generated)</text>
</g>
<!-- 47adec409bdd4c06ab6b9194c8c9885f -->
<g id="node10" class="node">
<title>47adec409bdd4c06ab6b9194c8c9885f</title>
<image xlink:href="/Users/alexwork/Documents/Github/Architecture_Diagrams_Python_AI/venv/lib/python3.9/site-packages/resources/programming/framework/fastapi.png" width="100.8px" height="100.8px" preserveAspectRatio="xMinYMin meet" x="1045.6" y="-1622"/>
<text xml:space="preserve" text-anchor="middle" x="1096" y="-1503.45" font-family="Sans-Serif" font-size="13.00" fill="#2d3436">evaluate_responses()</text>
<text xml:space="preserve" text-anchor="middle" x="1096" y="-1489.95" font-family="Sans-Serif" font-size="13.00" fill="#2d3436">Main Entry Point</text>
</g>
<!-- 636fed0a8b124343857a771c812905c1&#45;&gt;47adec409bdd4c06ab6b9194c8c9885f -->
<g id="edge16" class="edge">
<title>636fed0a8b124343857a771c812905c1&#45;&gt;47adec409bdd4c06ab6b9194c8c9885f</title>
<path fill="none" stroke="#7b8894" d="M1330,-1801.17C1330,-1708.76 1330,-1572 1330,-1572 1330,-1572 1157.71,-1572 1157.71,-1572"/>
<polygon fill="#7b8894" stroke="#7b8894" points="1157.71,-1568.5 1147.71,-1572 1157.71,-1575.5 1157.71,-1568.5"/>
<text xml:space="preserve" text-anchor="middle" x="1338.62" y="-1745.8" font-family="Sans-Serif" font-size="13.00" fill="#2d3436">input</text>
</g>
<!-- 96669091e4ad48bc8c14905754905de0 -->
<g id="node2" class="node">
<title>96669091e4ad48bc8c14905754905de0</title>
<image xlink:href="/Users/alexwork/Documents/Github/Architecture_Diagrams_Python_AI/venv/lib/python3.9/site-packages/resources/programming/language/python.png" width="100.8px" height="100.8px" preserveAspectRatio="xMinYMin meet" x="802.6" y="-1934.35"/>
<text xml:space="preserve" text-anchor="middle" x="853" y="-1815.8" font-family="Sans-Serif" font-size="13.00" fill="#2d3436">Model Name</text>
<text xml:space="preserve" text-anchor="middle" x="853" y="-1802.3" font-family="Sans-Serif" font-size="13.00" fill="#2d3436">(GPT&#45;4, Claude, etc.)</text>
</g>
<!-- 5d7138bc0fc14f8094fe974371cfb96b -->
<g id="node8" class="node">
<title>5d7138bc0fc14f8094fe974371cfb96b</title>
<image xlink:href="/Users/alexwork/Documents/Github/Architecture_Diagrams_Python_AI/venv/lib/python3.9/site-packages/resources/programming/language/python.png" width="100.8px" height="100.8px" preserveAspectRatio="xMinYMin meet" x="793.6" y="-1622"/>
<text xml:space="preserve" text-anchor="middle" x="844" y="-1505.7" font-family="Sans-Serif" font-size="13.00" fill="#2d3436">get_provider()</text>
<text xml:space="preserve" text-anchor="middle" x="844" y="-1492.2" font-family="Sans-Serif" font-size="13.00" fill="#2d3436">Model → Provider</text>
</g>
<!-- 96669091e4ad48bc8c14905754905de0&#45;&gt;5d7138bc0fc14f8094fe974371cfb96b -->
<g id="edge18" class="edge">
<title>96669091e4ad48bc8c14905754905de0&#45;&gt;5d7138bc0fc14f8094fe974371cfb96b</title>
<path fill="none" stroke="#7b8894" d="M848.5,-1801.48C848.5,-1801.48 848.5,-1665.78 848.5,-1665.78"/>
<polygon fill="#7b8894" stroke="#7b8894" points="852,-1665.78 848.5,-1655.78 845,-1665.78 852,-1665.78"/>
<text xml:space="preserve" text-anchor="middle" x="883.88" y="-1745.8" font-family="Sans-Serif" font-size="13.00" fill="#2d3436">lookup</text>
</g>
<!-- 96669091e4ad48bc8c14905754905de0&#45;&gt;47adec409bdd4c06ab6b9194c8c9885f -->
<g id="edge17" class="edge">
<title>96669091e4ad48bc8c14905754905de0&#45;&gt;47adec409bdd4c06ab6b9194c8c9885f</title>
<path fill="none" stroke="#7b8894" d="M903.27,-1808C961.99,-1808 1051.2,-1808 1051.2,-1808 1051.2,-1808 1051.2,-1665.79 1051.2,-1665.79"/>
<polygon fill="#7b8894" stroke="#7b8894" points="1054.7,-1665.79 1051.2,-1655.79 1047.7,-1665.79 1054.7,-1665.79"/>
<text xml:space="preserve" text-anchor="middle" x="993" y="-1745.8" font-family="Sans-Serif" font-size="13.00" fill="#2d3436">model</text>
</g>
<!-- 9d0b0f12439c46c3bb26b1e3a8959a43 -->
<g id="node3" class="node">
<title>9d0b0f12439c46c3bb26b1e3a8959a43</title>
<image xlink:href="/Users/alexwork/Documents/Github/Architecture_Diagrams_Python_AI/venv/lib/python3.9/site-packages/resources/generic/storage/storage.png" width="100.8px" height="100.8px" preserveAspectRatio="xMinYMin meet" x="961.6" y="-1934.35"/>
<text xml:space="preserve" text-anchor="middle" x="1012" y="-1816.7" font-family="Sans-Serif" font-size="13.00" fill="#2d3436">API Key</text>
</g>
<!-- 9d0b0f12439c46c3bb26b1e3a8959a43&#45;&gt;47adec409bdd4c06ab6b9194c8c9885f -->
<g id="edge19" class="edge">
<title>9d0b0f12439c46c3bb26b1e3a8959a43&#45;&gt;47adec409bdd4c06ab6b9194c8c9885f</title>
<path fill="none" stroke="#7b8894" d="M1056.8,-1815.79C1056.8,-1815.79 1056.8,-1665.85 1056.8,-1665.85"/>
<polygon fill="#7b8894" stroke="#7b8894" points="1060.3,-1665.85 1056.8,-1655.85 1053.3,-1665.85 1060.3,-1665.85"/>
<text xml:space="preserve" text-anchor="middle" x="1091.12" y="-1745.8" font-family="Sans-Serif" font-size="13.00" fill="#2d3436">auth</text>
</g>
<!-- c412ce49bfbb42f096061f1d39c1938f -->
<g id="node4" class="node">
<title>c412ce49bfbb42f096061f1d39c1938f</title>
<image xlink:href="/Users/alexwork/Documents/Github/Architecture_Diagrams_Python_AI/venv/lib/python3.9/site-packages/resources/generic/storage/storage.png" width="100.8px" height="100.8px" preserveAspectRatio="xMinYMin meet" x="1120.6" y="-1934.35"/>
<text xml:space="preserve" text-anchor="middle" x="1171" y="-1815.8" font-family="Sans-Serif" font-size="13.00" fill="#2d3436">Evaluation Criteria</text>
<text xml:space="preserve" text-anchor="middle" x="1171" y="-1802.3" font-family="Sans-Serif" font-size="13.00" fill="#2d3436">(Optional)</text>
</g>
<!-- c412ce49bfbb42f096061f1d39c1938f&#45;&gt;47adec409bdd4c06ab6b9194c8c9885f -->
<g id="edge20" class="edge">
<title>c412ce49bfbb42f096061f1d39c1938f&#45;&gt;47adec409bdd4c06ab6b9194c8c9885f</title>
<path fill="none" stroke="#7b8894" stroke-dasharray="5,2" d="M1133.5,-1801.48C1133.5,-1801.48 1133.5,-1665.78 1133.5,-1665.78"/>
<polygon fill="#7b8894" stroke="#7b8894" points="1137,-1665.78 1133.5,-1655.78 1130,-1665.78 1137,-1665.78"/>
<text xml:space="preserve" text-anchor="middle" x="1212.5" y="-1745.8" font-family="Sans-Serif" font-size="13.00" fill="#2d3436">custom criteria</text>
</g>
<!-- 28edd935aa1d4874b5140fb36a4662a5 -->
<g id="node5" class="node">
<title>28edd935aa1d4874b5140fb36a4662a5</title>
<image xlink:href="/Users/alexwork/Documents/Github/Architecture_Diagrams_Python_AI/venv/lib/python3.9/site-packages/resources/programming/language/python.png" width="100.8px" height="100.8px" preserveAspectRatio="xMinYMin meet" x="957.6" y="-1168.2"/>
<text xml:space="preserve" text-anchor="middle" x="1008" y="-1049.65" font-family="Sans-Serif" font-size="13.00" fill="#2d3436">GamELY</text>
<text xml:space="preserve" text-anchor="middle" x="1008" y="-1036.15" font-family="Sans-Serif" font-size="13.00" fill="#2d3436">Evaluator Instance</text>
</g>
<!-- 6d1647c11c4348219f404c3d1759ae9b -->
<g id="node6" class="node">
<title>6d1647c11c4348219f404c3d1759ae9b</title>
<image xlink:href="/Users/alexwork/Documents/Github/Architecture_Diagrams_Python_AI/venv/lib/python3.9/site-packages/resources/programming/language/python.png" width="100.8px" height="100.8px" preserveAspectRatio="xMinYMin meet" x="964.6" y="-715.9"/>
<text xml:space="preserve" text-anchor="middle" x="1015" y="-597.35" font-family="Sans-Serif" font-size="13.00" fill="#2d3436">validate_api_key()</text>
<text xml:space="preserve" text-anchor="middle" x="1015" y="-583.85" font-family="Sans-Serif" font-size="13.00" fill="#2d3436">Authentication</text>
</g>
<!-- 28edd935aa1d4874b5140fb36a4662a5&#45;&gt;6d1647c11c4348219f404c3d1759ae9b -->
<g id="edge1" class="edge">
<title>28edd935aa1d4874b5140fb36a4662a5&#45;&gt;6d1647c11c4348219f404c3d1759ae9b</title>
<path fill="none" stroke="#7b8894" d="M1011.5,-1035.1C1011.5,-1035.1 1011.5,-759.54 1011.5,-759.54"/>
<polygon fill="#7b8894" stroke="#7b8894" points="1015,-759.54 1011.5,-749.54 1008,-759.54 1015,-759.54"/>
<text xml:space="preserve" text-anchor="middle" x="1038.62" y="-792.45" font-family="Sans-Serif" font-size="13.00" fill="#2d3436">validates</text>
</g>
<!-- 359e4d117c26427fa5b844c3196ff4c9 -->
<g id="node18" class="node">
<title>359e4d117c26427fa5b844c3196ff4c9</title>
<image xlink:href="/Users/alexwork/Documents/Github/Architecture_Diagrams_Python_AI/venv/lib/python3.9/site-packages/resources/programming/language/python.png" width="100.8px" height="100.8px" preserveAspectRatio="xMinYMin meet" x="514.6" y="-715.9"/>
<text xml:space="preserve" text-anchor="middle" x="565" y="-597.35" font-family="Sans-Serif" font-size="13.00" fill="#2d3436">evaluate_batch()</text>
<text xml:space="preserve" text-anchor="middle" x="565" y="-583.85" font-family="Sans-Serif" font-size="13.00" fill="#2d3436">Batch Processing</text>
</g>
<!-- 28edd935aa1d4874b5140fb36a4662a5&#45;&gt;359e4d117c26427fa5b844c3196ff4c9 -->
<g id="edge21" class="edge">
<title>28edd935aa1d4874b5140fb36a4662a5&#45;&gt;359e4d117c26427fa5b844c3196ff4c9</title>
<path fill="none" stroke="#7b8894" d="M961.1,-1035.06C961.1,-908.67 961.1,-682 961.1,-682 961.1,-682 626.68,-682 626.68,-682"/>
<polygon fill="#7b8894" stroke="#7b8894" points="626.68,-678.5 616.68,-682 626.68,-685.5 626.68,-678.5"/>
<text xml:space="preserve" text-anchor="middle" x="872.5" y="-792.45" font-family="Sans-Serif" font-size="13.00" fill="#2d3436">starts</text>
</g>
<!-- af38bb3202c04377aafda18c5af196a1 -->
<g id="node7" class="node">
<title>af38bb3202c04377aafda18c5af196a1</title>
<image xlink:href="/Users/alexwork/Documents/Github/Architecture_Diagrams_Python_AI/venv/lib/python3.9/site-packages/resources/programming/language/python.png" width="100.8px" height="100.8px" preserveAspectRatio="xMinYMin meet" x="953.6" y="-450.8"/>
<text xml:space="preserve" text-anchor="middle" x="1004" y="-332.25" font-family="Sans-Serif" font-size="13.00" fill="#2d3436">_setup_client()</text>
<text xml:space="preserve" text-anchor="middle" x="1004" y="-318.75" font-family="Sans-Serif" font-size="13.00" fill="#2d3436">Initialize API Client</text>
</g>
<!-- 6d1647c11c4348219f404c3d1759ae9b&#45;&gt;af38bb3202c04377aafda18c5af196a1 -->
<g id="edge2" class="edge">
<title>6d1647c11c4348219f404c3d1759ae9b&#45;&gt;af38bb3202c04377aafda18c5af196a1</title>
<path fill="none" stroke="#7b8894" d="M1024.47,-582.71C1024.47,-582.71 1024.47,-494.53 1024.47,-494.53"/>
<polygon fill="#7b8894" stroke="#7b8894" points="1027.97,-494.53 1024.47,-484.53 1020.97,-494.53 1027.97,-494.53"/>
<text xml:space="preserve" text-anchor="middle" x="1032.12" y="-527.35" font-family="Sans-Serif" font-size="13.00" fill="#2d3436">if valid</text>
</g>
<!-- 5a7a44c804ad449bb2c43365d889d7b2 -->
<g id="node11" class="node">
<title>5a7a44c804ad449bb2c43365d889d7b2</title>
<image xlink:href="/Users/alexwork/Documents/Github/Architecture_Diagrams_Python_AI/venv/lib/python3.9/site-packages/resources/generic/compute/rack.png" width="100.8px" height="100.8px" preserveAspectRatio="xMinYMin meet" x="475.6" y="-179.2"/>
<text xml:space="preserve" text-anchor="middle" x="526" y="-60.65" font-family="Sans-Serif" font-size="13.00" fill="#2d3436">OpenAI API</text>
<text xml:space="preserve" text-anchor="middle" x="526" y="-47.15" font-family="Sans-Serif" font-size="13.00" fill="#2d3436">GPT&#45;3.5/4/4o/o1</text>
</g>
<!-- 6d1647c11c4348219f404c3d1759ae9b&#45;&gt;5a7a44c804ad449bb2c43365d889d7b2 -->
<g id="edge22" class="edge">
<title>6d1647c11c4348219f404c3d1759ae9b&#45;&gt;5a7a44c804ad449bb2c43365d889d7b2</title>
<path fill="none" stroke="#7b8894" d="M994.53,-582.72C994.53,-555.93 994.53,-533 994.53,-533 994.53,-533 535.2,-533 535.2,-533 535.2,-533 535.2,-223.08 535.2,-223.08"/>
<polygon fill="#7b8894" stroke="#7b8894" points="538.7,-223.08 535.2,-213.08 531.7,-223.08 538.7,-223.08"/>
<text xml:space="preserve" text-anchor="middle" x="1191" y="-394.8" font-family="Sans-Serif" font-size="13.00" fill="#2d3436">checks</text>
</g>
<!-- 65430cb1138747788ccac9c6db96709d -->
<g id="node12" class="node">
<title>65430cb1138747788ccac9c6db96709d</title>
<image xlink:href="/Users/alexwork/Documents/Github/Architecture_Diagrams_Python_AI/venv/lib/python3.9/site-packages/resources/generic/compute/rack.png" width="100.8px" height="100.8px" preserveAspectRatio="xMinYMin meet" x="634.6" y="-179.2"/>
<text xml:space="preserve" text-anchor="middle" x="685" y="-60.65" font-family="Sans-Serif" font-size="13.00" fill="#2d3436">Anthropic API</text>
<text xml:space="preserve" text-anchor="middle" x="685" y="-47.15" font-family="Sans-Serif" font-size="13.00" fill="#2d3436">Claude 2/3 Family</text>
</g>
<!-- 6d1647c11c4348219f404c3d1759ae9b&#45;&gt;65430cb1138747788ccac9c6db96709d -->
<g id="edge23" class="edge">
<title>6d1647c11c4348219f404c3d1759ae9b&#45;&gt;65430cb1138747788ccac9c6db96709d</title>
<path fill="none" stroke="#7b8894" d="M964.82,-649C870.22,-649 674.92,-649 674.92,-649 674.92,-649 674.92,-223.03 674.92,-223.03"/>
<polygon fill="#7b8894" stroke="#7b8894" points="678.42,-223.03 674.92,-213.03 671.42,-223.03 678.42,-223.03"/>
<text xml:space="preserve" text-anchor="middle" x="1349" y="-394.8" font-family="Sans-Serif" font-size="13.00" fill="#2d3436">checks</text>
</g>
<!-- c9061eab45c44f6b8e765794f72131f9 -->
<g id="node13" class="node">
<title>c9061eab45c44f6b8e765794f72131f9</title>
<image xlink:href="/Users/alexwork/Documents/Github/Architecture_Diagrams_Python_AI/venv/lib/python3.9/site-packages/resources/generic/compute/rack.png" width="100.8px" height="100.8px" preserveAspectRatio="xMinYMin meet" x="793.6" y="-179.2"/>
<text xml:space="preserve" text-anchor="middle" x="844" y="-60.65" font-family="Sans-Serif" font-size="13.00" fill="#2d3436">DeepSeek API</text>
<text xml:space="preserve" text-anchor="middle" x="844" y="-47.15" font-family="Sans-Serif" font-size="13.00" fill="#2d3436">Chat/Reasoner</text>
</g>
<!-- 6d1647c11c4348219f404c3d1759ae9b&#45;&gt;c9061eab45c44f6b8e765794f72131f9 -->
<g id="edge24" class="edge">
<title>6d1647c11c4348219f404c3d1759ae9b&#45;&gt;c9061eab45c44f6b8e765794f72131f9</title>
<path fill="none" stroke="#7b8894" d="M964.62,-616C914.18,-616 844,-616 844,-616 844,-616 844,-222.96 844,-222.96"/>
<polygon fill="#7b8894" stroke="#7b8894" points="847.5,-222.96 844,-212.96 840.5,-222.96 847.5,-222.96"/>
<text xml:space="preserve" text-anchor="middle" x="1507" y="-394.8" font-family="Sans-Serif" font-size="13.00" fill="#2d3436">checks</text>
</g>
<!-- af38bb3202c04377aafda18c5af196a1&#45;&gt;5a7a44c804ad449bb2c43365d889d7b2 -->
<g id="edge25" class="edge">
<title>af38bb3202c04377aafda18c5af196a1&#45;&gt;5a7a44c804ad449bb2c43365d889d7b2</title>
<path fill="none" stroke="blue" d="M953.89,-456C836.93,-456 555.8,-456 555.8,-456 555.8,-456 555.8,-222.88 555.8,-222.88"/>
<polygon fill="blue" stroke="blue" points="559.3,-222.88 555.8,-212.88 552.3,-222.88 559.3,-222.88"/>
<text xml:space="preserve" text-anchor="middle" x="403.12" y="-257.25" font-family="Sans-Serif" font-size="13.00" fill="#2d3436">OpenAI client</text>
</g>
<!-- af38bb3202c04377aafda18c5af196a1&#45;&gt;65430cb1138747788ccac9c6db96709d -->
<g id="edge26" class="edge">
<title>af38bb3202c04377aafda18c5af196a1&#45;&gt;65430cb1138747788ccac9c6db96709d</title>
<path fill="none" stroke="purple" d="M953.68,-400C866.14,-400 695.08,-400 695.08,-400 695.08,-400 695.08,-222.79 695.08,-222.79"/>
<polygon fill="purple" stroke="purple" points="698.58,-222.79 695.08,-212.79 691.58,-222.79 698.58,-222.79"/>
<text xml:space="preserve" text-anchor="middle" x="779.12" y="-257.25" font-family="Sans-Serif" font-size="13.00" fill="#2d3436">Anthropic client</text>
</g>
<!-- af38bb3202c04377aafda18c5af196a1&#45;&gt;c9061eab45c44f6b8e765794f72131f9 -->
<g id="edge27" class="edge">
<title>af38bb3202c04377aafda18c5af196a1&#45;&gt;c9061eab45c44f6b8e765794f72131f9</title>
<path fill="none" stroke="orange" d="M1004,-317.87C1004,-238.02 1004,-129 1004,-129 1004,-129 905.7,-129 905.7,-129"/>
<polygon fill="orange" stroke="orange" points="905.7,-125.5 895.7,-129 905.7,-132.5 905.7,-125.5"/>
<text xml:space="preserve" text-anchor="middle" x="1164.12" y="-257.25" font-family="Sans-Serif" font-size="13.00" fill="#2d3436">DeepSeek client</text>
</g>
<!-- 5d7138bc0fc14f8094fe974371cfb96b&#45;&gt;28edd935aa1d4874b5140fb36a4662a5 -->
<g id="edge5" class="edge">
<title>5d7138bc0fc14f8094fe974371cfb96b&#45;&gt;28edd935aa1d4874b5140fb36a4662a5</title>
<path fill="none" stroke="#7b8894" d="M894.06,-1572C940.87,-1572 1003.6,-1572 1003.6,-1572 1003.6,-1572 1003.6,-1212.09 1003.6,-1212.09"/>
<polygon fill="#7b8894" stroke="#7b8894" points="1007.1,-1212.09 1003.6,-1202.09 1000.1,-1212.09 1007.1,-1212.09"/>
<text xml:space="preserve" text-anchor="middle" x="991.25" y="-1433.45" font-family="Sans-Serif" font-size="13.00" fill="#2d3436">returns provider</text>
</g>
<!-- 7d5442a4c5ca4f0fa379b2fbd5f10381 -->
<g id="node9" class="node">
<title>7d5442a4c5ca4f0fa379b2fbd5f10381</title>
<image xlink:href="/Users/alexwork/Documents/Github/Architecture_Diagrams_Python_AI/venv/lib/python3.9/site-packages/resources/generic/storage/storage.png" width="100.8px" height="100.8px" preserveAspectRatio="xMinYMin meet" x="793.6" y="-1168.2"/>
<text xml:space="preserve" text-anchor="middle" x="844" y="-1049.65" font-family="Sans-Serif" font-size="13.00" fill="#2d3436">MODEL_PROVIDER_MAP</text>
<text xml:space="preserve" text-anchor="middle" x="844" y="-1036.15" font-family="Sans-Serif" font-size="13.00" fill="#2d3436">23 Supported Models</text>
</g>
<!-- 5d7138bc0fc14f8094fe974371cfb96b&#45;&gt;7d5442a4c5ca4f0fa379b2fbd5f10381 -->
<g id="edge3" class="edge">
<title>5d7138bc0fc14f8094fe974371cfb96b&#45;&gt;7d5442a4c5ca4f0fa379b2fbd5f10381</title>
<path fill="none" stroke="#7b8894" d="M844,-1488.89C844,-1488.89 844,-1211.83 844,-1211.83"/>
<polygon fill="#7b8894" stroke="#7b8894" points="847.5,-1211.83 844,-1201.83 840.5,-1211.83 847.5,-1211.83"/>
<text xml:space="preserve" text-anchor="middle" x="866.25" y="-1433.45" font-family="Sans-Serif" font-size="13.00" fill="#2d3436">uses</text>
</g>
<!-- 47adec409bdd4c06ab6b9194c8c9885f&#45;&gt;28edd935aa1d4874b5140fb36a4662a5 -->
<g id="edge4" class="edge">
<title>47adec409bdd4c06ab6b9194c8c9885f&#45;&gt;28edd935aa1d4874b5140fb36a4662a5</title>
<path fill="none" stroke="#7b8894" d="M1052,-1488.89C1052,-1488.89 1052,-1211.83 1052,-1211.83"/>
<polygon fill="#7b8894" stroke="#7b8894" points="1055.5,-1211.83 1052,-1201.83 1048.5,-1211.83 1055.5,-1211.83"/>
<text xml:space="preserve" text-anchor="middle" x="1124.12" y="-1433.45" font-family="Sans-Serif" font-size="13.00" fill="#2d3436">creates</text>
</g>
<!-- 21ffb0055c644b03b489ff35aff328c9 -->
<g id="node17" class="node">
<title>21ffb0055c644b03b489ff35aff328c9</title>
<image xlink:href="/Users/alexwork/Documents/Github/Architecture_Diagrams_Python_AI/venv/lib/python3.9/site-packages/resources/programming/language/python.png" width="100.8px" height="100.8px" preserveAspectRatio="xMinYMin meet" x="166.6" y="-1168.2"/>
<text xml:space="preserve" text-anchor="middle" x="217" y="-1049.65" font-family="Sans-Serif" font-size="13.00" fill="#2d3436">_parse_response()</text>
<text xml:space="preserve" text-anchor="middle" x="217" y="-1036.15" font-family="Sans-Serif" font-size="13.00" fill="#2d3436">Extract Score</text>
</g>
<!-- 5a7a44c804ad449bb2c43365d889d7b2&#45;&gt;21ffb0055c644b03b489ff35aff328c9 -->
<g id="edge28" class="edge">
<title>5a7a44c804ad449bb2c43365d889d7b2&#45;&gt;21ffb0055c644b03b489ff35aff328c9</title>
<path fill="none" stroke="blue" stroke-dasharray="5,2" d="M475.94,-129C381.58,-129 186.76,-129 186.76,-129 186.76,-129 186.76,-1023.68 186.76,-1023.68"/>
<polygon fill="blue" stroke="blue" points="183.26,-1023.68 186.76,-1033.68 190.26,-1023.68 183.26,-1023.68"/>
<text xml:space="preserve" text-anchor="middle" x="27.75" y="-527.35" font-family="Sans-Serif" font-size="13.00" fill="#2d3436">response</text>
</g>
<!-- 65430cb1138747788ccac9c6db96709d&#45;&gt;21ffb0055c644b03b489ff35aff328c9 -->
<g id="edge29" class="edge">
<title>65430cb1138747788ccac9c6db96709d&#45;&gt;21ffb0055c644b03b489ff35aff328c9</title>
<path fill="none" stroke="purple" stroke-dasharray="5,2" d="M715.24,-211.54C715.24,-231.4 715.24,-247 715.24,-247 715.24,-247 206.92,-247 206.92,-247 206.92,-247 206.92,-1023.58 206.92,-1023.58"/>
<polygon fill="purple" stroke="purple" points="203.42,-1023.58 206.92,-1033.58 210.42,-1023.58 203.42,-1023.58"/>
<text xml:space="preserve" text-anchor="middle" x="146.75" y="-527.35" font-family="Sans-Serif" font-size="13.00" fill="#2d3436">response</text>
</g>
<!-- c9061eab45c44f6b8e765794f72131f9&#45;&gt;21ffb0055c644b03b489ff35aff328c9 -->
<g id="edge30" class="edge">
<title>c9061eab45c44f6b8e765794f72131f9&#45;&gt;21ffb0055c644b03b489ff35aff328c9</title>
<path fill="none" stroke="orange" stroke-dasharray="5,2" d="M869.2,-211.23C869.2,-247.49 869.2,-282 869.2,-282 869.2,-282 227.08,-282 227.08,-282 227.08,-282 227.08,-1023.86 227.08,-1023.86"/>
<polygon fill="orange" stroke="orange" points="223.58,-1023.86 227.08,-1033.86 230.58,-1023.86 223.58,-1023.86"/>
<text xml:space="preserve" text-anchor="middle" x="265.75" y="-527.35" font-family="Sans-Serif" font-size="13.00" fill="#2d3436">response</text>
</g>
<!-- a7a31922c2d34ce2a27c65ca9c771545 -->
<g id="node14" class="node">
<title>a7a31922c2d34ce2a27c65ca9c771545</title>
<image xlink:href="/Users/alexwork/Documents/Github/Architecture_Diagrams_Python_AI/venv/lib/python3.9/site-packages/resources/programming/language/python.png" width="100.8px" height="100.8px" preserveAspectRatio="xMinYMin meet" x="325.6" y="-1168.2"/>
<text xml:space="preserve" text-anchor="middle" x="376" y="-1049.65" font-family="Sans-Serif" font-size="13.00" fill="#2d3436">_evaluate_single()</text>
<text xml:space="preserve" text-anchor="middle" x="376" y="-1036.15" font-family="Sans-Serif" font-size="13.00" fill="#2d3436">Single Pair</text>
</g>
<!-- 0a025bf1946e47a0bb2d0c85183a59be -->
<g id="node15" class="node">
<title>0a025bf1946e47a0bb2d0c85183a59be</title>
<image xlink:href="/Users/alexwork/Documents/Github/Architecture_Diagrams_Python_AI/venv/lib/python3.9/site-packages/resources/programming/language/python.png" width="100.8px" height="100.8px" preserveAspectRatio="xMinYMin meet" x="325.6" y="-715.9"/>
<text xml:space="preserve" text-anchor="middle" x="376" y="-597.35" font-family="Sans-Serif" font-size="13.00" fill="#2d3436">_build_prompt()</text>
<text xml:space="preserve" text-anchor="middle" x="376" y="-583.85" font-family="Sans-Serif" font-size="13.00" fill="#2d3436">Construct Prompt</text>
</g>
<!-- a7a31922c2d34ce2a27c65ca9c771545&#45;&gt;0a025bf1946e47a0bb2d0c85183a59be -->
<g id="edge6" class="edge">
<title>a7a31922c2d34ce2a27c65ca9c771545&#45;&gt;0a025bf1946e47a0bb2d0c85183a59be</title>
<path fill="none" stroke="#7b8894" d="M359.2,-1035.1C359.2,-1035.1 359.2,-759.54 359.2,-759.54"/>
<polygon fill="#7b8894" stroke="#7b8894" points="362.7,-759.54 359.2,-749.54 355.7,-759.54 362.7,-759.54"/>
<text xml:space="preserve" text-anchor="middle" x="246.75" y="-792.45" font-family="Sans-Serif" font-size="13.00" fill="#2d3436">1. build</text>
</g>
<!-- 665f0abb7a214f119592d55d36247683 -->
<g id="node16" class="node">
<title>665f0abb7a214f119592d55d36247683</title>
<image xlink:href="/Users/alexwork/Documents/Github/Architecture_Diagrams_Python_AI/venv/lib/python3.9/site-packages/resources/programming/language/python.png" width="100.8px" height="100.8px" preserveAspectRatio="xMinYMin meet" x="325.6" y="-450.8"/>
<text xml:space="preserve" text-anchor="middle" x="376" y="-332.25" font-family="Sans-Serif" font-size="13.00" fill="#2d3436">_call_provider()</text>
<text xml:space="preserve" text-anchor="middle" x="376" y="-318.75" font-family="Sans-Serif" font-size="13.00" fill="#2d3436">API Call</text>
</g>
<!-- 0a025bf1946e47a0bb2d0c85183a59be&#45;&gt;665f0abb7a214f119592d55d36247683 -->
<g id="edge7" class="edge">
<title>0a025bf1946e47a0bb2d0c85183a59be&#45;&gt;665f0abb7a214f119592d55d36247683</title>
<path fill="none" stroke="#7b8894" d="M376,-582.71C376,-582.71 376,-494.53 376,-494.53"/>
<polygon fill="#7b8894" stroke="#7b8894" points="379.5,-494.53 376,-484.53 372.5,-494.53 379.5,-494.53"/>
<text xml:space="preserve" text-anchor="middle" x="393.62" y="-527.35" font-family="Sans-Serif" font-size="13.00" fill="#2d3436">2. call</text>
</g>
<!-- 665f0abb7a214f119592d55d36247683&#45;&gt;5a7a44c804ad449bb2c43365d889d7b2 -->
<g id="edge32" class="edge">
<title>665f0abb7a214f119592d55d36247683&#45;&gt;5a7a44c804ad449bb2c43365d889d7b2</title>
<path fill="none" stroke="blue" stroke-dasharray="5,2" d="M426.16,-345C458.71,-345 495.1,-345 495.1,-345 495.1,-345 495.1,-222.97 495.1,-222.97"/>
<polygon fill="blue" stroke="blue" points="498.6,-222.97 495.1,-212.97 491.6,-222.97 498.6,-222.97"/>
<text xml:space="preserve" text-anchor="middle" x="282.88" y="-257.25" font-family="Sans-Serif" font-size="13.00" fill="#2d3436">query</text>
</g>
<!-- 665f0abb7a214f119592d55d36247683&#45;&gt;65430cb1138747788ccac9c6db96709d -->
<g id="edge33" class="edge">
<title>665f0abb7a214f119592d55d36247683&#45;&gt;65430cb1138747788ccac9c6db96709d</title>
<path fill="none" stroke="purple" stroke-dasharray="5,2" d="M426.16,-373C506.42,-373 654.76,-373 654.76,-373 654.76,-373 654.76,-222.99 654.76,-222.99"/>
<polygon fill="purple" stroke="purple" points="658.26,-222.99 654.76,-212.99 651.26,-222.99 658.26,-222.99"/>
<text xml:space="preserve" text-anchor="middle" x="652.88" y="-257.25" font-family="Sans-Serif" font-size="13.00" fill="#2d3436">query</text>
</g>
<!-- 665f0abb7a214f119592d55d36247683&#45;&gt;c9061eab45c44f6b8e765794f72131f9 -->
<g id="edge34" class="edge">
<title>665f0abb7a214f119592d55d36247683&#45;&gt;c9061eab45c44f6b8e765794f72131f9</title>
<path fill="none" stroke="orange" stroke-dasharray="5,2" d="M426.36,-428C542.42,-428 818.8,-428 818.8,-428 818.8,-428 818.8,-222.86 818.8,-222.86"/>
<polygon fill="orange" stroke="orange" points="822.3,-222.86 818.8,-212.86 815.3,-222.86 822.3,-222.86"/>
<text xml:space="preserve" text-anchor="middle" x="1034.88" y="-257.25" font-family="Sans-Serif" font-size="13.00" fill="#2d3436">query</text>
</g>
<!-- 21ffb0055c644b03b489ff35aff328c9&#45;&gt;359e4d117c26427fa5b844c3196ff4c9 -->
<g id="edge9" class="edge">
<title>21ffb0055c644b03b489ff35aff328c9&#45;&gt;359e4d117c26427fa5b844c3196ff4c9</title>
<path fill="none" stroke="#7b8894" d="M247.24,-1035.41C247.24,-935.7 247.24,-781 247.24,-781 247.24,-781 539.8,-781 539.8,-781 539.8,-781 539.8,-759.72 539.8,-759.72"/>
<polygon fill="#7b8894" stroke="#7b8894" points="543.3,-759.72 539.8,-749.72 536.3,-759.72 543.3,-759.72"/>
<text xml:space="preserve" text-anchor="middle" x="348.5" y="-792.45" font-family="Sans-Serif" font-size="13.00" fill="#2d3436">score</text>
</g>
<!-- 359e4d117c26427fa5b844c3196ff4c9&#45;&gt;a7a31922c2d34ce2a27c65ca9c771545 -->
<g id="edge8" class="edge">
<title>359e4d117c26427fa5b844c3196ff4c9&#45;&gt;a7a31922c2d34ce2a27c65ca9c771545</title>
<path fill="none" stroke="#7b8894" d="M565,-748.12C565,-782.7 565,-815 565,-815 565,-815 392.8,-815 392.8,-815 392.8,-815 392.8,-1023.55 392.8,-1023.55"/>
<polygon fill="#7b8894" stroke="#7b8894" points="389.3,-1023.54 392.8,-1033.55 396.3,-1023.55 389.3,-1023.54"/>
<text xml:space="preserve" text-anchor="middle" x="465.12" y="-792.45" font-family="Sans-Serif" font-size="13.00" fill="#2d3436">for each row</text>
</g>
<!-- 3f0836acc40f43a9b7181d0ef6ecccd5 -->
<g id="node20" class="node">
<title>3f0836acc40f43a9b7181d0ef6ecccd5</title>
<image xlink:href="/Users/alexwork/Documents/Github/Architecture_Diagrams_Python_AI/venv/lib/python3.9/site-packages/resources/generic/storage/storage.png" width="100.8px" height="100.8px" preserveAspectRatio="xMinYMin meet" x="753.6" y="-2437.25"/>
<text xml:space="preserve" text-anchor="middle" x="804" y="-2318.7" font-family="Sans-Serif" font-size="13.00" fill="#2d3436">pandas DataFrame</text>
<text xml:space="preserve" text-anchor="middle" x="804" y="-2305.2" font-family="Sans-Serif" font-size="13.00" fill="#2d3436">with Scores</text>
</g>
<!-- 359e4d117c26427fa5b844c3196ff4c9&#45;&gt;3f0836acc40f43a9b7181d0ef6ecccd5 -->
<g id="edge31" class="edge">
<title>359e4d117c26427fa5b844c3196ff4c9&#45;&gt;3f0836acc40f43a9b7181d0ef6ecccd5</title>
<path fill="none" stroke="#7b8894" d="M615.23,-715C676.95,-715 773.6,-715 773.6,-715 773.6,-715 773.6,-2292.71 773.6,-2292.71"/>
<polygon fill="#7b8894" stroke="#7b8894" points="770.1,-2292.71 773.6,-2302.71 777.1,-2292.71 770.1,-2292.71"/>
<text xml:space="preserve" text-anchor="middle" x="752.38" y="-1745.8" font-family="Sans-Serif" font-size="13.00" fill="#2d3436">compiled results</text>
</g>
<!-- d1cf170abcda4e1ea8a27b0b4ad87396 -->
<g id="node19" class="node">
<title>d1cf170abcda4e1ea8a27b0b4ad87396</title>
<image xlink:href="/Users/alexwork/Documents/Github/Architecture_Diagrams_Python_AI/venv/lib/python3.9/site-packages/resources/generic/storage/storage.png" width="100.8px" height="100.8px" preserveAspectRatio="xMinYMin meet" x="514.6" y="-1168.2"/>
<text xml:space="preserve" text-anchor="middle" x="565" y="-1037.95" font-family="Sans-Serif" font-size="13.00" fill="#2d3436">DEFAULT_CRITERIA</text>
<text xml:space="preserve" text-anchor="middle" x="565" y="-1024.45" font-family="Sans-Serif" font-size="13.00" fill="#2d3436">17 Built&#45;in:</text>
<text xml:space="preserve" text-anchor="middle" x="565" y="-1010.95" font-family="Sans-Serif" font-size="13.00" fill="#2d3436">• Accuracy</text>
<text xml:space="preserve" text-anchor="middle" x="565" y="-997.45" font-family="Sans-Serif" font-size="13.00" fill="#2d3436">• Comprehension</text>
<text xml:space="preserve" text-anchor="middle" x="565" y="-983.95" font-family="Sans-Serif" font-size="13.00" fill="#2d3436">• Reasoning</text>
<text xml:space="preserve" text-anchor="middle" x="565" y="-970.45" font-family="Sans-Serif" font-size="13.00" fill="#2d3436">• Helpfulness</text>
<text xml:space="preserve" text-anchor="middle" x="565" y="-956.95" font-family="Sans-Serif" font-size="13.00" fill="#2d3436">• Coverage</text>
<text xml:space="preserve" text-anchor="middle" x="565" y="-943.45" font-family="Sans-Serif" font-size="13.00" fill="#2d3436">• Fluency</text>
<text xml:space="preserve" text-anchor="middle" x="565" y="-929.95" font-family="Sans-Serif" font-size="13.00" fill="#2d3436">• Grammar</text>
<text xml:space="preserve" text-anchor="middle" x="565" y="-916.45" font-family="Sans-Serif" font-size="13.00" fill="#2d3436">• Organization</text>
<text xml:space="preserve" text-anchor="middle" x="565" y="-902.95" font-family="Sans-Serif" font-size="13.00" fill="#2d3436">• Bias Detection</text>
<text xml:space="preserve" text-anchor="middle" x="565" y="-889.45" font-family="Sans-Serif" font-size="13.00" fill="#2d3436">• Toxicity</text>
<text xml:space="preserve" text-anchor="middle" x="565" y="-875.95" font-family="Sans-Serif" font-size="13.00" fill="#2d3436">• Privacy</text>
<text xml:space="preserve" text-anchor="middle" x="565" y="-862.45" font-family="Sans-Serif" font-size="13.00" fill="#2d3436">• Hallucination</text>
<text xml:space="preserve" text-anchor="middle" x="565" y="-848.95" font-family="Sans-Serif" font-size="13.00" fill="#2d3436">• etc.</text>
</g>
<!-- d1cf170abcda4e1ea8a27b0b4ad87396&#45;&gt;359e4d117c26427fa5b844c3196ff4c9 -->
<g id="edge10" class="edge">
<title>d1cf170abcda4e1ea8a27b0b4ad87396&#45;&gt;359e4d117c26427fa5b844c3196ff4c9</title>
<path fill="none" stroke="#7b8894" stroke-dasharray="5,2" d="M590.2,-847.84C590.2,-847.84 590.2,-759.61 590.2,-759.61"/>
<polygon fill="#7b8894" stroke="#7b8894" points="593.7,-759.61 590.2,-749.61 586.7,-759.61 593.7,-759.61"/>
<text xml:space="preserve" text-anchor="middle" x="617.12" y="-792.45" font-family="Sans-Serif" font-size="13.00" fill="#2d3436">uses if no custom</text>
</g>
<!-- fb1994c66d7644d2930ed73baeec3417 -->
<g id="node22" class="node">
<title>fb1994c66d7644d2930ed73baeec3417</title>
<image xlink:href="/Users/alexwork/Documents/Github/Architecture_Diagrams_Python_AI/venv/lib/python3.9/site-packages/resources/onprem/client/users.png" width="100.8px" height="100.8px" preserveAspectRatio="xMinYMin meet" x="961.6" y="-2186.55"/>
<text xml:space="preserve" text-anchor="middle" x="1012" y="-2068.9" font-family="Sans-Serif" font-size="13.00" fill="#2d3436">User/Developer</text>
</g>
<!-- 3f0836acc40f43a9b7181d0ef6ecccd5&#45;&gt;fb1994c66d7644d2930ed73baeec3417 -->
<g id="edge35" class="edge">
<title>3f0836acc40f43a9b7181d0ef6ecccd5&#45;&gt;fb1994c66d7644d2930ed73baeec3417</title>
<path fill="none" stroke="#7b8894" d="M828.5,-2304.36C828.5,-2231.25 828.5,-2136 828.5,-2136 828.5,-2136 950.34,-2136 950.34,-2136"/>
<polygon fill="#7b8894" stroke="#7b8894" points="950.34,-2139.5 960.34,-2136 950.34,-2132.5 950.34,-2139.5"/>
<text xml:space="preserve" text-anchor="middle" x="925" y="-2248.7" font-family="Sans-Serif" font-size="13.00" fill="#2d3436">returns</text>
</g>
<!-- 6a43ce3002924a12b595f44b6de75e8f -->
<g id="node21" class="node">
<title>6a43ce3002924a12b595f44b6de75e8f</title>
<image xlink:href="/Users/alexwork/Documents/Github/Architecture_Diagrams_Python_AI/venv/lib/python3.9/site-packages/resources/generic/storage/storage.png" width="100.8px" height="100.8px" preserveAspectRatio="xMinYMin meet" x="753.6" y="-2774.35"/>
<text xml:space="preserve" text-anchor="middle" x="804" y="-2651.3" font-family="Sans-Serif" font-size="13.00" fill="#2d3436">Scoring System</text>
<text xml:space="preserve" text-anchor="middle" x="804" y="-2637.8" font-family="Sans-Serif" font-size="13.00" fill="#2d3436">1 = Strongly Disagree</text>
<text xml:space="preserve" text-anchor="middle" x="804" y="-2624.3" font-family="Sans-Serif" font-size="13.00" fill="#2d3436">2 = Disagree</text>
<text xml:space="preserve" text-anchor="middle" x="804" y="-2610.8" font-family="Sans-Serif" font-size="13.00" fill="#2d3436">3 = Neutral</text>
<text xml:space="preserve" text-anchor="middle" x="804" y="-2597.3" font-family="Sans-Serif" font-size="13.00" fill="#2d3436">4 = Agree</text>
<text xml:space="preserve" text-anchor="middle" x="804" y="-2583.8" font-family="Sans-Serif" font-size="13.00" fill="#2d3436">5 = Strongly Agree</text>
<text xml:space="preserve" text-anchor="middle" x="804" y="-2570.3" font-family="Sans-Serif" font-size="13.00" fill="#2d3436">NaN = Irrelevant</text>
</g>
<!-- 6a43ce3002924a12b595f44b6de75e8f&#45;&gt;3f0836acc40f43a9b7181d0ef6ecccd5 -->
<g id="edge11" class="edge">
<title>6a43ce3002924a12b595f44b6de75e8f&#45;&gt;3f0836acc40f43a9b7181d0ef6ecccd5</title>
<path fill="none" stroke="#7b8894" stroke-dasharray="1,5" d="M804,-2569.21C804,-2569.21 804,-2480.88 804,-2480.88"/>
<polygon fill="#7b8894" stroke="#7b8894" points="807.5,-2480.88 804,-2470.88 800.5,-2480.88 807.5,-2480.88"/>
<text xml:space="preserve" text-anchor="middle" x="832.12" y="-2513.8" font-family="Sans-Serif" font-size="13.00" fill="#2d3436">interprets</text>
</g>
<!-- fb1994c66d7644d2930ed73baeec3417&#45;&gt;636fed0a8b124343857a771c812905c1 -->
<g id="edge12" class="edge">
<title>fb1994c66d7644d2930ed73baeec3417&#45;&gt;636fed0a8b124343857a771c812905c1</title>
<path fill="none" stroke="#7b8894" d="M1062.39,-2136C1152.06,-2136 1330,-2136 1330,-2136 1330,-2136 1330,-1977.99 1330,-1977.99"/>
<polygon fill="#7b8894" stroke="#7b8894" points="1333.5,-1977.99 1330,-1967.99 1326.5,-1977.99 1333.5,-1977.99"/>
<text xml:space="preserve" text-anchor="middle" x="1345.5" y="-2012.4" font-family="Sans-Serif" font-size="13.00" fill="#2d3436">provides</text>
</g>
<!-- fb1994c66d7644d2930ed73baeec3417&#45;&gt;96669091e4ad48bc8c14905754905de0 -->
<g id="edge13" class="edge">
<title>fb1994c66d7644d2930ed73baeec3417&#45;&gt;96669091e4ad48bc8c14905754905de0</title>
<path fill="none" stroke="#7b8894" d="M986.8,-2067.91C986.8,-2017.28 986.8,-1957 986.8,-1957 986.8,-1957 914.72,-1957 914.72,-1957"/>
<polygon fill="#7b8894" stroke="#7b8894" points="914.72,-1953.5 904.72,-1957 914.72,-1960.5 914.72,-1953.5"/>
<text xml:space="preserve" text-anchor="middle" x="901" y="-2012.4" font-family="Sans-Serif" font-size="13.00" fill="#2d3436">selects</text>
</g>
<!-- fb1994c66d7644d2930ed73baeec3417&#45;&gt;9d0b0f12439c46c3bb26b1e3a8959a43 -->
<g id="edge14" class="edge">
<title>fb1994c66d7644d2930ed73baeec3417&#45;&gt;9d0b0f12439c46c3bb26b1e3a8959a43</title>
<path fill="none" stroke="#7b8894" d="M1012,-2067.9C1012,-2067.9 1012,-1963.77 1012,-1963.77"/>
<polygon fill="#7b8894" stroke="#7b8894" points="1015.5,-1963.77 1012,-1953.77 1008.5,-1963.77 1015.5,-1963.77"/>
<text xml:space="preserve" text-anchor="middle" x="1036.75" y="-2012.4" font-family="Sans-Serif" font-size="13.00" fill="#2d3436">supplies</text>
</g>
<!-- fb1994c66d7644d2930ed73baeec3417&#45;&gt;c412ce49bfbb42f096061f1d39c1938f -->
<g id="edge15" class="edge">
<title>fb1994c66d7644d2930ed73baeec3417&#45;&gt;c412ce49bfbb42f096061f1d39c1938f</title>
<path fill="none" stroke="#7b8894" d="M1037.2,-2067.82C1037.2,-2019.03 1037.2,-1962 1037.2,-1962 1037.2,-1962 1109.28,-1962 1109.28,-1962"/>
<polygon fill="#7b8894" stroke="#7b8894" points="1109.28,-1965.5 1119.28,-1962 1109.28,-1958.5 1109.28,-1965.5"/>
<text xml:space="preserve" text-anchor="middle" x="1195.75" y="-2012.4" font-family="Sans-Serif" font-size="13.00" fill="#2d3436">defines (optional)</text>
</g>
</g>
</svg>
